<svg width="18" height="18" viewBox="0 0 18 18" fill="none" xmlns="http://www.w3.org/2000/svg">
<path d="M8.99745 1H9.00255C11.1459 1 13.1458 2.07509 14.6334 3.67019C16.1301 5.27504 17 7.29103 17 8.99745V9.00255C17 13.4195 13.4194 17 9.00255 17H8.99745C6.85411 17 4.8542 15.9249 3.36657 14.3298C1.86986 12.725 1 10.709 1 9.00255V8.99745C1 4.58049 4.58063 1 8.99745 1Z" stroke="#007AA6" stroke-width="2" stroke-miterlimit="10"/>
<path d="M9 4C11.7613 4 14 6.76127 14 9C14 11.7613 11.7616 14 9 14C6.23873 14 4 11.2387 4 9C4 6.23873 6.2384 4 9 4Z" fill="#007AA6"/>
</svg>
